<svg version="1.0" xmlns="http://www.w3.org/2000/svg"
 width="1134.000000pt" height="800.000000pt" viewBox="0 0 1134.000000 800.000000"
 preserveAspectRatio="xMidYMid meet">

<g transform="translate(0.000000,800.000000) scale(0.100000,-0.100000)"
fill="#000000" stroke="none">
<path d="M4575 7299 c-49 -4 -151 -12 -225 -18 -74 -6 -144 -13 -155 -16 -11
-3 -67 -12 -125 -20 -264 -37 -620 -119 -735 -170 -278 -124 -361 -188 -400
-310 -27 -87 -10 -168 57 -266 l50 -74 -7 -92 c-4 -50 -11 -109 -16 -130 -5
-21 -9 -76 -10 -123 -1 -122 -10 -174 -31 -178 -20 -4 -287 114 -368 162 -14
9 -70 41 -125 72 -55 31 -109 64 -120 74 -11 10 -40 32 -64 48 -24 16 -77 67
-117 112 -62 69 -78 94 -95 150 -31 104 -8 179 83 266 41 40 275 174 302 174
19 0 40 27 27 34 -15 9 -158 -21 -238 -50 -37 -14 -88 -31 -113 -38 -25 -8
-71 -26 -103 -40 -32 -14 -61 -26 -66 -26 -14 0 -136 -76 -201 -126 -117 -89
-172 -186 -172 -304 0 -105 63 -220 179 -330 82 -79 134 -120 233 -186 176
-118 496 -274 770 -377 137 -51 165 -64 178 -80 9 -11 10 -63 3 -213 -6 -110
-13 -208 -17 -219 -4 -11 -18 -33 -33 -48 -30 -33 -39 -101 -40 -305 -1 -103
-4 -134 -15 -138 -21 -8 -176 40 -436 136 -102 38 -325 127 -348 140 -9 5 -37
17 -62 28 -25 11 -72 32 -105 46 -101 45 -366 183 -417 218 -16 10 -41 26 -56
37 -15 10 -45 28 -67 40 -22 12 -58 35 -80 52 -22 16 -51 37 -65 47 -79 54
-144 109 -215 183 -44 46 -94 97 -111 114 -77 77 -160 227 -190 345 -29 113
-9 236 59 368 64 122 310 327 478 397 35 15 71 33 79 40 8 7 26 16 40 20 14 4
38 19 55 33 l29 24 -44 -5 c-89 -11 -146 -24 -175 -40 -16 -9 -40 -17 -53 -17
-13 0 -44 -9 -70 -19 -26 -10 -96 -38 -157 -61 -383 -147 -673 -377 -754 -598
-49 -133 -49 -260 0 -404 53 -159 209 -352 419 -519 89 -71 272 -199 285 -199
3 0 18 -8 33 -19 116 -79 393 -225 562 -296 36 -15 92 -40 125 -55 107 -50
511 -201 599 -225 28 -7 83 -25 121 -39 155 -56 695 -205 915 -252 63 -13 156
-33 205 -44 294 -66 255 -59 1035 -185 105 -16 268 -35 585 -65 116 -11 255
-24 310 -30 97 -9 250 -18 745 -40 129 -5 449 -14 710 -20 261 -6 684 -15 940
-20 256 -5 499 -12 540 -15 41 -3 300 -14 575 -25 797 -32 1183 -52 1670 -90
383 -30 485 -34 485 -21 0 6 -12 13 -27 17 -16 3 -41 10 -57 15 -16 5 -44 9
-62 9 -18 0 -70 9 -116 20 -46 11 -99 20 -118 20 -19 0 -91 9 -160 19 -69 11
-165 25 -215 31 -49 6 -144 17 -210 26 -283 36 -587 70 -845 94 -58 6 -136 14
-175 20 -38 5 -102 9 -141 10 -87 0 -140 16 -123 36 6 7 34 24 62 37 69 31
167 121 167 152 0 13 6 27 13 32 6 4 86 8 177 8 177 0 219 8 279 53 64 48 87
100 101 225 6 61 10 166 8 232 -4 132 -12 158 -73 233 -34 42 -35 47 -35 126
0 143 -38 277 -111 396 -43 70 -90 99 -472 289 -180 90 -333 168 -340 175 -6
7 -55 62 -107 121 -212 242 -439 480 -552 578 -73 64 -163 126 -268 184 -67
37 -290 136 -345 153 -22 6 -62 20 -90 30 -46 17 -187 56 -345 94 -334 82
-792 122 -1102 97 -78 -6 -197 -16 -263 -21 -280 -23 -368 -30 -510 -40 -82
-6 -190 -15 -240 -21 -49 -5 -175 -16 -280 -24 -104 -9 -257 -22 -340 -30 -82
-7 -213 -19 -290 -25 -77 -6 -241 -21 -365 -34 -221 -23 -250 -23 -250 -4 0
17 124 129 165 150 22 11 51 28 65 38 14 9 39 22 55 28 17 6 62 22 100 37 201
76 499 133 1058 205 48 6 95 14 104 17 15 6 14 7 -3 14 -23 9 -89 9 -209 -2z
m1610 -369 c183 -16 289 -30 465 -61 205 -35 317 -60 485 -108 192 -55 494
-192 618 -280 105 -75 109 -92 20 -80 -32 4 -229 15 -438 24 -209 8 -441 18
-515 21 -256 12 -260 -19 -33 -271 157 -174 380 -412 412 -439 14 -12 34 -30
46 -41 57 -55 77 -67 136 -81 85 -20 395 -34 929 -42 l445 -8 70 -36 c39 -20
151 -76 250 -124 234 -114 248 -126 179 -159 -29 -14 -43 -15 -86 -6 -68 15
-440 34 -508 26 -31 -4 -74 -1 -100 5 -25 7 -67 16 -95 22 -27 6 -63 16 -80
24 -59 25 -161 54 -230 64 -140 21 -172 22 -278 6 -139 -21 -179 -20 -208 2
-13 10 -60 38 -104 61 -44 24 -87 49 -95 56 -13 10 -86 35 -104 35 -4 0 -6
-10 -4 -22 3 -23 37 -48 234 -174 51 -33 94 -71 122 -106 138 -179 394 -321
652 -363 47 -7 144 -23 215 -35 79 -12 150 -30 180 -44 49 -24 223 -59 380
-77 44 -5 85 -11 91 -13 6 -2 40 2 75 11 35 8 73 15 84 16 32 3 29 -29 -9 -70
l-34 -38 -378 -5 c-343 -5 -378 -7 -388 -22 -8 -13 -7 -26 2 -50 17 -43 41
-118 37 -118 -3 0 -77 111 -107 160 -23 37 -70 81 -97 92 -14 5 -84 13 -155
18 -72 5 -185 14 -251 19 -66 6 -228 18 -360 26 -132 9 -250 19 -263 21 -12 3
-39 19 -60 37 -97 86 -241 147 -345 147 -55 0 -87 21 -68 44 17 21 42 20 138
-3 86 -21 126 -36 162 -63 33 -25 61 -23 61 3 0 78 -161 207 -280 225 -25 4
-51 11 -57 17 -18 13 -16 78 3 105 15 22 18 22 152 16 205 -10 208 3 42 201
-116 138 -195 236 -240 297 -19 26 -116 141 -214 255 -181 210 -339 373 -362
373 -6 0 -22 9 -35 21 l-24 20 45 -6 c66 -8 158 -76 297 -218 104 -107 220
-234 241 -262 4 -6 16 -17 26 -25 18 -14 18 -13 11 10 -4 14 -16 34 -26 46
-11 11 -19 24 -19 28 0 10 -43 67 -114 151 -282 332 -348 369 -706 395 -162
12 -196 22 -202 60 -5 31 -22 26 -30 -9 -5 -16 -16 -32 -26 -35 -35 -10 -189
-16 -622 -26 -245 -5 -471 -12 -502 -15 -49 -5 -60 -3 -78 15 -11 11 -20 31
-20 44 0 14 -4 27 -9 31 -14 8 -41 -24 -41 -49 0 -46 -16 -49 -288 -57 -277
-9 -637 -24 -796 -35 -146 -10 -136 16 -136 -338 l0 -294 69 -104 c38 -56 89
-123 114 -147 26 -24 44 -48 41 -53 -3 -4 -36 -8 -73 -8 -39 0 -72 -5 -79 -12
-16 -16 -15 -60 2 -83 12 -17 41 -19 535 -24 502 -6 523 -7 537 -25 11 -16 14
-70 14 -270 0 -138 -4 -257 -9 -265 -7 -11 -43 -12 -197 -6 -276 10 -323 17
-354 52 -54 62 -135 89 -232 78 -45 -5 -68 -15 -109 -46 l-53 -39 -145 0
c-149 0 -178 6 -168 33 5 13 31 16 140 19 l135 3 54 51 c75 71 91 78 178 78
83 0 98 -6 166 -65 40 -35 52 -40 87 -37 22 2 42 8 44 15 7 19 -148 166 -202
193 -40 19 -64 24 -122 23 -89 -1 -150 -28 -196 -85 -72 -90 -68 -88 -161 -88
-120 0 -133 7 -141 73 -4 30 -2 143 4 251 12 193 11 198 -10 259 -13 34 -30
73 -38 86 -17 27 -17 126 -1 341 24 324 39 453 63 545 16 63 47 80 172 95 50
5 167 19 260 30 94 11 197 20 230 20 33 0 89 5 125 10 36 5 126 14 200 20 74
6 173 15 220 20 85 10 377 33 630 50 74 5 218 17 320 25 630 56 703 60 865 45z
m8 -441 c32 -6 59 -15 61 -18 2 -3 -39 -4 -92 -2 -149 5 -190 -15 -206 -101
-9 -51 22 -656 36 -691 6 -15 33 -48 61 -71 117 -103 386 -200 766 -277 53
-11 61 -20 61 -76 0 -71 -12 -90 -64 -97 -57 -9 -196 -77 -260 -127 l-49 -39
-346 0 c-257 0 -350 3 -359 12 -9 9 -12 77 -12 244 0 210 2 236 20 275 19 42
20 67 20 500 0 465 1 480 38 490 23 7 266 -10 325 -22z m-434 7 c8 -10 11
-134 9 -457 l-3 -444 -24 -45 c-23 -43 -24 -55 -28 -290 -2 -135 -6 -251 -8
-257 -3 -10 -90 -13 -387 -13 -211 0 -408 -4 -439 -9 -133 -22 -172 -46 -103
-62 30 -8 423 -27 736 -36 153 -5 179 -8 193 -23 13 -15 14 -23 5 -39 -13 -26
1 -25 -380 -6 -653 33 -790 43 -811 56 -11 7 -15 66 -17 296 -2 301 4 365 39
383 10 6 62 10 117 10 162 0 346 12 328 22 -8 5 -104 16 -213 25 -152 12 -201
20 -210 31 -16 19 -19 788 -4 811 8 12 71 17 328 27 175 7 410 17 523 22 321
14 336 14 349 -2z m-1301 -52 l22 -15 0 -388 c0 -337 -2 -390 -15 -401 -12
-10 -73 -12 -283 -7 -147 4 -349 7 -450 7 l-183 0 -53 54 c-30 29 -73 82 -97
117 l-43 64 -4 249 c-4 309 -9 296 114 296 47 0 172 5 277 10 106 6 289 15
407 19 118 4 231 9 250 9 20 1 46 -5 58 -14z m3737 -1143 c101 -26 215 -64
265 -90 45 -22 59 -36 91 -94 22 -38 39 -73 39 -79 0 -7 -15 -8 -41 -4 -36 6
-43 3 -70 -25 -34 -37 -60 -35 -72 6 -16 51 -22 58 -67 71 -57 17 -74 12 -99
-31 -23 -39 -56 -46 -108 -22 -79 35 -103 96 -72 185 26 76 18 83 -94 85 -90
1 -117 -9 -117 -44 0 -23 -18 -24 -42 -2 -22 20 -22 27 -1 48 14 15 37 16 177
13 89 -3 184 -10 211 -17z m525 -171 c-6 -11 -17 -20 -25 -20 -8 0 -15 9 -15
20 0 15 7 20 25 20 23 0 24 -2 15 -20z m350 0 c22 -7 21 -8 -15 -10 -74 -5
-190 2 -199 11 -12 11 179 10 214 -1z m178 -32 c27 -57 47 -166 33 -186 -18
-29 -46 -8 -68 53 -32 89 -30 155 6 155 10 0 23 -10 29 -22z m-440 -84 c2 -1
-11 -10 -28 -19 -27 -14 -34 -15 -41 -3 -10 15 -11 32 -3 41 5 4 61 -10 72
-19z m67 -4 c8 -13 -5 -13 -25 0 -13 8 -13 10 2 10 9 0 20 -4 23 -10z m-2025
-30 c12 -7 11 -13 -10 -34 -13 -15 -28 -26 -32 -26 -17 0 -102 -63 -160 -117
l-57 -54 -88 6 c-48 3 -216 12 -373 21 -157 8 -295 17 -306 19 -35 8 -42 56
-10 68 7 3 109 -1 227 -8 118 -8 284 -15 369 -17 l155 -3 66 52 c110 85 182
116 219 93z m-3510 -240 c0 -39 -10 -43 -39 -16 -22 20 -40 25 -108 29 -96 7
-147 -8 -157 -45 -3 -13 -6 -62 -6 -110 0 -82 -9 -110 -24 -72 -12 30 -7 219
6 232 9 9 57 12 170 10 l158 -2 0 -26z m406 -25 c23 -14 44 -31 48 -40 7 -20
5 -20 -59 15 -59 32 -87 36 -129 20 -35 -13 -34 5 2 25 34 19 83 12 138 -20z
m399 -55 c33 -5 121 -12 195 -15 74 -4 220 -15 323 -26 104 -10 212 -19 240
-19 33 0 46 -4 37 -9 -15 -8 -457 2 -725 17 -137 8 -149 10 -166 31 -27 33
-24 44 9 37 15 -3 54 -10 87 -16z m2824 -9 c19 -12 5 -18 -73 -32 -55 -9 -83
-22 -147 -65 -43 -29 -79 -50 -79 -47 0 3 14 23 31 44 52 66 221 129 268 100z
m-3254 -84 c29 -16 48 -38 70 -81 26 -51 30 -73 33 -152 3 -72 0 -104 -14
-141 -35 -92 -90 -143 -156 -143 -142 0 -226 253 -142 425 30 60 44 76 89 99
41 22 73 20 120 -7z m775 -77 c74 -5 239 -14 365 -20 127 -6 291 -15 365 -20
74 -6 241 -15 370 -20 129 -6 347 -17 483 -25 137 -8 254 -15 261 -15 21 0 98
-56 111 -81 20 -36 8 -49 -44 -49 -78 0 -417 20 -591 35 -91 8 -228 17 -305
20 -183 7 -678 33 -875 46 -85 5 -222 14 -305 19 -194 13 -192 12 -206 59 -20
68 -16 70 118 65 65 -2 179 -9 253 -14z m3700 -10 c19 -10 112 -127 162 -203
59 -90 31 -115 -125 -116 -120 -1 -170 6 -144 20 9 5 44 12 79 15 76 8 108 25
108 59 0 34 -50 119 -101 174 -31 33 -38 46 -27 52 17 11 25 11 48 -1z m-1053
-41 c52 -31 98 -79 130 -136 22 -40 28 -63 31 -139 4 -83 2 -97 -23 -151 -36
-80 -85 -126 -162 -152 -70 -23 -129 -27 -182 -10 -138 43 -193 105 -221 245
-28 141 64 310 194 358 61 23 184 15 233 -15z m806 -13 c11 -9 17 -27 17 -55
0 -35 -4 -43 -26 -53 -22 -11 -28 -10 -40 7 -17 23 -18 69 -2 95 15 23 26 25
51 6z m-3142 -306 l186 0 47 -37 c53 -43 61 -69 19 -58 -15 3 -65 11 -112 16
-47 5 -137 18 -200 29 -62 11 -124 20 -137 20 -12 0 -35 5 -51 11 l-28 12 25
8 c14 4 34 6 45 3 11 -2 104 -4 206 -4z m1487 -50 c137 -6 208 -12 218 -21 17
-14 44 -73 44 -95 0 -19 -211 -19 -510 0 -124 8 -301 18 -395 22 -93 3 -173 8
-178 11 -7 4 94 84 123 96 16 7 376 0 698 -13z"/>
<path d="M3695 6329 c-10 -15 3 -25 16 -12 7 7 7 13 1 17 -6 3 -14 1 -17 -5z"/>
<path d="M3560 6297 c0 -13 8 -31 18 -39 30 -27 105 -59 115 -49 14 14 1 29
-43 51 -22 11 -44 29 -50 40 -15 28 -40 26 -40 -3z"/>
<path d="M3960 6265 c0 -34 22 -61 55 -67 11 -2 20 -10 20 -18 0 -22 -228 -41
-263 -23 -41 22 -81 16 -94 -12 -14 -32 -37 -32 -102 1 -73 37 -106 71 -106
111 0 20 -5 33 -13 33 -37 0 -49 -58 -21 -99 21 -29 158 -96 230 -112 50 -11
56 -11 69 7 14 18 16 17 19 -7 0 -7 8 -15 16 -19 25 -13 224 -40 248 -33 12 3
39 2 59 -2 32 -6 35 -9 22 -18 -9 -7 -20 -29 -25 -50 -5 -21 -12 -38 -16 -38
-5 1 -21 1 -38 1 -24 0 -30 4 -30 20 0 18 3 19 21 9 26 -14 44 1 35 29 -8 23
-59 36 -87 22 -16 -9 -19 -22 -19 -78 0 -40 5 -73 12 -80 18 -18 137 -16 144
3 8 20 31 19 42 -1 5 -9 14 -14 20 -10 13 8 4 145 -11 164 -8 10 -7 16 4 23
22 14 44 5 42 -16 -1 -11 -4 -50 -6 -87 -5 -82 3 -93 63 -79 30 7 48 6 62 -2
15 -10 21 -9 28 3 11 17 11 153 0 170 -12 20 -55 7 -58 -17 -5 -32 -17 -29
-32 7 -14 34 -3 56 38 71 22 8 23 13 17 52 -10 56 -10 57 -55 57 -30 0 -43 -6
-59 -26 -17 -22 -26 -25 -53 -20 -43 9 -66 31 -61 60 5 23 8 24 63 19 73 -7
84 7 42 50 -30 30 -34 31 -127 32 l-95 1 0 -31z m257 -131 c-3 -3 -12 -4 -19
-1 -8 3 -5 6 6 6 11 1 17 -2 13 -5z m-133 -43 c7 -10 -3 -41 -13 -41 -17 1
-33 20 -28 34 7 17 32 22 41 7z"/>
<path d="M3740 6210 c0 -5 7 -10 16 -10 8 0 12 5 9 10 -3 6 -10 10 -16 10 -5
0 -9 -4 -9 -10z"/>
<path d="M3562 5998 c-13 -13 -17 -136 -4 -153 11 -17 175 -13 196 4 13 11 22
11 40 3 13 -6 26 -8 29 -6 8 8 -5 138 -16 152 -17 22 -57 14 -67 -13 -12 -31
-28 -32 -32 -2 -4 30 -43 35 -60 8 -16 -26 -24 -26 -31 -1 -6 22 -36 27 -55 8z
m223 -98 c-5 -8 -11 -8 -17 -2 -6 6 -7 16 -3 22 5 8 11 8 17 2 6 -6 7 -16 3
-22z"/>
<path d="M3855 5998 c-2 -7 -6 -44 -8 -81 -4 -63 -3 -69 19 -83 32 -22 43 -11
34 33 -4 21 -7 56 -6 78 3 39 -8 65 -26 65 -5 0 -10 -6 -13 -12z"/>
<path d="M4062 5763 c3 -16 14 -18 86 -19 99 -2 117 11 29 21 -34 3 -75 9 -90
12 -24 4 -28 2 -25 -14z"/>
<path d="M3707 5763 c-14 -13 -6 -23 18 -23 28 0 34 15 9 24 -19 7 -19 7 -27
-1z"/>
<path d="M3787 5764 c-15 -15 -6 -24 23 -24 17 0 30 5 30 10 0 6 -4 10 -9 10
-5 0 -16 2 -23 5 -8 3 -17 2 -21 -1z"/>
<path d="M3945 5762 c-11 -11 9 -22 41 -22 24 0 34 4 32 13 -4 11 -62 19 -73
9z"/>
<path d="M3625 4390 c-3 -5 -1 -18 5 -29 14 -28 13 -58 -6 -86 -14 -22 -14
-24 5 -35 18 -9 26 -5 58 23 37 34 37 35 25 76 -12 40 -35 61 -66 61 -8 0 -18
-4 -21 -10z"/>
<path d="M6980 4240 c-11 -7 -12 -13 -5 -23 42 -59 46 -68 40 -87 -4 -12 -17
-26 -30 -32 -49 -22 -34 -68 23 -68 38 0 92 63 92 106 0 79 -68 137 -120 104z"/>
<path d="M6095 3481 c-118 -18 -233 -79 -318 -169 -86 -93 -103 -141 -127
-364 -15 -147 -12 -938 4 -1078 20 -169 59 -254 156 -344 73 -67 160 -110 265
-132 68 -14 90 -14 149 -4 99 18 132 34 202 102 l63 60 17 -38 c9 -22 21 -50
28 -64 l12 -25 159 0 160 0 3 548 2 547 -305 0 -306 0 3 -147 3 -148 48 -3 47
-3 0 -187 c0 -196 -8 -252 -43 -289 -22 -24 -65 -30 -96 -13 -45 24 -46 38
-46 715 0 593 1 642 18 672 31 57 106 57 132 0 10 -22 17 -92 22 -217 l8 -185
255 0 255 0 -1 155 c-3 249 -31 338 -138 445 -73 72 -151 119 -251 150 -57 18
-301 28 -380 16z"/>
<path d="M1682 3448 c-9 -9 -12 -246 -12 -1004 0 -546 3 -999 6 -1008 5 -14
35 -16 224 -16 200 0 219 2 224 18 2 9 8 286 11 615 4 328 11 597 15 597 8 0
24 -77 39 -195 32 -251 124 -910 134 -965 l12 -65 151 -3 c123 -2 153 0 163
12 7 8 19 75 26 148 8 73 19 169 25 213 6 44 15 116 21 160 15 113 26 198 39
290 6 44 15 116 21 160 19 148 28 210 37 245 l8 35 7 -40 c4 -22 7 -302 7
-621 0 -482 2 -584 14 -593 9 -8 78 -11 227 -9 l214 3 0 1015 0 1015 -329 3
c-182 1 -333 -1 -338 -6 -6 -6 -59 -380 -113 -802 -14 -105 -27 -106 -43 -2
-7 42 -17 102 -22 132 -5 30 -14 89 -20 130 -6 41 -17 118 -26 170 -8 52 -17
111 -19 130 -3 19 -10 75 -15 124 -6 49 -16 98 -21 108 -9 17 -31 18 -332 18
-238 0 -326 -3 -335 -12z"/>
<path d="M3636 3451 c-9 -13 -83 -541 -111 -786 -8 -71 -19 -159 -24 -195 -13
-88 -26 -181 -56 -400 -73 -539 -83 -623 -78 -636 4 -12 48 -14 266 -12 l262
3 7 50 c3 28 11 106 17 173 6 68 15 130 22 138 16 19 162 20 178 1 6 -8 16
-81 22 -163 6 -82 15 -160 18 -174 l8 -25 259 0 259 0 -3 50 c-3 57 -24 213
-52 390 -11 66 -54 343 -95 615 -41 272 -82 536 -90 585 -8 50 -19 119 -24
155 -5 36 -14 98 -20 139 -7 41 -16 80 -22 88 -9 10 -85 13 -375 13 -204 0
-365 -4 -368 -9z m412 -613 c7 -57 16 -148 22 -203 5 -55 14 -147 20 -205 23
-222 26 -258 22 -269 -6 -17 -178 -15 -185 3 -7 18 56 548 89 744 9 58 21 34
32 -70z"/>
<path d="M4755 3438 c-3 -13 -4 -471 -3 -1018 l3 -995 415 0 415 0 0 200 0
200 -146 3 c-107 2 -150 6 -158 16 -8 9 -12 251 -13 812 l-3 799 -252 3 -253
2 -5 -22z"/>
<path d="M7216 3442 c-3 -10 -11 -53 -17 -97 -11 -81 -22 -165 -39 -290 -6
-38 -15 -106 -21 -150 -10 -75 -15 -116 -38 -282 -26 -185 -39 -282 -60 -443
-5 -41 -17 -122 -25 -180 -38 -257 -56 -411 -58 -490 l-3 -85 259 0 260 0 8
30 c5 17 13 89 18 162 5 72 14 143 20 157 9 25 12 26 93 26 51 0 88 -5 95 -12
7 -7 12 -42 13 -82 0 -39 6 -118 12 -176 l12 -105 254 -3 c140 -1 259 2 263 6
8 8 2 78 -22 232 -27 180 -52 339 -89 577 -22 144 -45 299 -51 345 -5 46 -14
112 -20 148 -12 70 -25 156 -40 260 -6 36 -14 92 -20 125 -19 123 -31 201 -36
245 -3 25 -10 57 -16 73 l-10 27 -369 0 c-343 0 -368 -1 -373 -18z m424 -712
c6 -58 15 -148 20 -200 5 -52 15 -142 21 -200 7 -58 13 -121 13 -140 l1 -35
-84 -3 c-46 -2 -88 1 -93 6 -5 5 -4 54 2 113 5 57 14 154 20 214 14 148 58
454 67 468 8 12 13 -22 33 -223z"/>
<path d="M8335 3438 c-3 -13 -4 -471 -3 -1018 l3 -995 219 -3 c121 -1 223 1
227 5 5 5 11 291 15 636 4 345 10 627 14 627 4 0 10 -24 14 -52 3 -29 10 -82
15 -118 12 -85 30 -209 40 -290 5 -36 16 -114 25 -175 47 -322 76 -542 76
-567 0 -66 5 -68 169 -68 107 0 151 4 158 13 6 6 13 39 17 72 3 33 11 94 16
135 6 41 14 111 20 155 6 44 14 112 19 150 6 39 15 108 21 155 6 47 15 114 20
150 5 36 14 103 20 150 6 47 16 117 21 155 16 123 21 145 30 139 5 -3 9 -271
9 -620 0 -405 4 -622 10 -635 10 -18 23 -19 230 -19 l220 0 0 1020 0 1020
-335 0 c-325 0 -335 -1 -345 -20 -6 -11 -15 -69 -20 -128 -9 -94 -20 -183 -60
-477 -6 -38 -15 -106 -20 -150 -17 -140 -31 -164 -43 -75 -3 19 -11 69 -17
110 -6 41 -15 100 -19 130 -71 482 -88 586 -96 600 -4 6 -130 10 -335 10
l-330 0 -5 -22z"/>
<path d="M5080 955 c0 -69 -4 -125 -9 -125 -5 0 -25 7 -44 15 -51 21 -95 18
-142 -8 -117 -65 -113 -303 5 -351 52 -21 129 -21 158 0 21 15 25 15 41 0 10
-9 25 -16 34 -16 16 0 17 27 17 305 l0 305 -30 0 -30 0 0 -125z m-37 -166 c34
-18 37 -28 37 -126 0 -86 -2 -93 -25 -111 -59 -46 -150 -31 -182 31 -18 37
-20 116 -3 158 7 16 25 36 39 44 32 17 104 19 134 4z"/>
<path d="M8952 778 l3 -303 22 -3 c16 -2 24 3 28 20 3 13 4 149 3 303 l-3 280
-28 3 -27 3 2 -303z"/>
<path d="M2792 1011 c-113 -39 -174 -122 -180 -246 -2 -39 1 -89 7 -112 16
-60 68 -123 125 -151 64 -32 184 -41 239 -18 64 26 43 41 -59 41 -148 0 -225
53 -243 166 -9 59 -1 142 16 174 18 31 75 83 106 94 16 6 66 11 112 11 84 0
100 5 86 28 -21 34 -129 41 -209 13z"/>
<path d="M5344 1017 c-2 -7 23 -85 57 -172 98 -257 110 -288 123 -324 15 -42
39 -60 62 -46 17 11 30 39 104 235 28 74 67 173 85 220 26 63 32 86 22 92 -41
26 -55 3 -142 -237 -49 -134 -74 -197 -80 -203 -10 -10 -22 12 -45 83 -44 135
-129 348 -142 356 -19 13 -38 11 -44 -4z"/>
<path d="M6906 1021 c-5 -7 -9 -349 -6 -539 0 -9 10 -12 28 -10 l27 3 5 115
c5 111 6 115 29 118 49 7 67 -8 150 -123 73 -101 86 -115 112 -115 16 0 29 5
29 12 0 13 -64 108 -117 176 -19 23 -33 47 -31 52 2 5 23 20 48 33 55 29 83
74 82 132 -1 105 -65 147 -238 153 -72 3 -114 0 -118 -7z m271 -85 c32 -38 27
-96 -11 -135 -24 -24 -33 -26 -114 -26 l-87 0 -3 84 c-2 46 0 91 3 99 4 11 24
13 96 10 86 -3 92 -5 116 -32z"/>
<path d="M8255 958 c-2 -7 -6 -31 -7 -53 -3 -37 -5 -40 -35 -43 -27 -3 -33 -8
-33 -27 0 -23 17 -35 51 -35 18 0 19 -9 20 -112 1 -62 4 -126 8 -143 12 -58
117 -97 166 -62 25 19 11 37 -29 37 -19 0 -44 8 -57 19 -22 18 -23 25 -24 137
l0 119 35 3 c68 5 82 11 78 35 -3 19 -10 22 -55 25 -56 3 -54 0 -66 92 -3 19
-46 26 -52 8z"/>
<path d="M3168 848 c-17 -6 -28 -17 -28 -29 0 -17 8 -19 83 -19 96 0 127 -17
127 -71 l0 -31 -58 7 c-107 12 -177 -24 -188 -97 -8 -49 19 -102 61 -122 43
-21 119 -20 151 0 23 16 26 15 44 -1 11 -10 26 -15 35 -12 22 9 22 274 -1 318
-29 57 -147 86 -226 57z m163 -198 c13 -7 19 -21 19 -45 0 -82 -144 -114 -178
-39 -14 29 -2 67 25 83 23 13 109 14 134 1z"/>
<path d="M3534 847 c-2 -7 -3 -94 -2 -192 l3 -180 25 0 25 0 5 135 c3 74 9
141 13 148 10 15 72 42 98 42 24 0 49 27 43 45 -8 21 -48 19 -94 -5 -22 -11
-46 -20 -53 -20 -8 0 -17 9 -20 20 -6 22 -35 27 -43 7z"/>
<path d="M4002 849 c-23 -7 -32 -15 -30 -27 3 -14 19 -18 92 -22 78 -4 90 -8
107 -29 11 -13 19 -34 17 -45 -3 -19 -9 -21 -68 -18 -144 7 -219 -75 -164
-179 28 -55 134 -78 195 -42 27 16 29 16 48 -1 11 -10 27 -16 36 -13 22 9 22
274 -1 318 -29 56 -141 84 -232 58z m146 -195 c60 -12 55 -82 -8 -114 -50 -25
-81 -25 -114 1 -35 28 -35 70 0 98 27 21 66 26 122 15z"/>
<path d="M4379 828 c-1 -18 -2 -102 -3 -186 -1 -158 4 -182 39 -168 12 4 15
29 15 137 l0 131 31 29 c26 25 39 29 85 29 79 0 88 -17 94 -190 5 -127 6 -135
25 -135 19 0 20 8 23 135 2 79 -1 151 -8 173 -21 73 -110 98 -199 55 l-45 -22
-14 22 c-21 33 -42 28 -43 -10z"/>
<path d="M5923 848 c-21 -7 -33 -17 -33 -29 0 -16 11 -19 91 -21 86 -3 93 -5
112 -29 13 -18 17 -34 12 -48 -6 -21 -11 -22 -70 -16 -51 6 -71 3 -108 -13
-52 -23 -67 -45 -67 -97 0 -51 25 -94 65 -111 44 -18 125 -18 149 1 17 13 23
13 44 -1 46 -30 52 -17 52 131 0 93 -4 146 -14 169 -26 63 -140 94 -233 64z
m154 -194 c52 -14 41 -85 -19 -115 -67 -34 -138 -7 -138 52 0 54 77 84 157 63z"/>
<path d="M6297 853 c-10 -10 -8 -356 2 -371 5 -8 17 -12 27 -10 17 3 19 16 24
142 l5 138 30 24 c25 20 39 24 85 22 74 -4 80 -17 80 -178 0 -132 6 -154 36
-148 17 3 19 15 22 138 2 79 -1 151 -8 173 -21 73 -110 98 -199 55 l-45 -22
-14 22 c-14 22 -33 28 -45 15z"/>
<path d="M7447 839 c-20 -11 -49 -38 -64 -61 -24 -36 -28 -51 -28 -118 0 -69
3 -81 28 -113 43 -57 79 -72 174 -72 63 0 86 4 99 17 27 27 8 40 -50 33 -102
-13 -186 33 -186 101 l0 34 129 0 c144 0 144 0 131 69 -20 110 -133 163 -233
110z m156 -71 c36 -48 20 -59 -85 -56 -105 3 -115 12 -69 58 27 28 36 31 82
28 43 -2 56 -8 72 -30z"/>
<path d="M7794 847 c-2 -7 -3 -94 -2 -192 3 -178 3 -180 26 -183 22 -3 22 -3
22 133 l0 137 31 29 c26 24 39 29 84 29 82 0 89 -12 95 -184 5 -137 6 -141 28
-144 l22 -3 0 164 c0 157 -1 164 -22 184 -55 49 -111 56 -185 21 l-46 -22 -15
22 c-16 25 -30 28 -38 9z"/>
<path d="M8585 853 c-29 -7 -46 -24 -43 -41 2 -12 19 -15 83 -13 69 2 85 -1
108 -19 19 -15 27 -31 27 -52 l0 -30 -65 7 c-115 13 -185 -32 -185 -116 0 -40
32 -91 66 -105 44 -19 108 -18 145 2 28 14 32 14 48 0 10 -9 25 -16 34 -16 15
0 17 17 17 154 0 149 -1 155 -24 183 -37 44 -134 65 -211 46z m156 -203 c25
-14 26 -71 2 -92 -20 -17 -77 -38 -103 -38 -26 0 -58 31 -66 62 -4 21 0 33 20
52 20 21 35 26 76 26 28 0 60 -5 71 -10z"/>
</g>
</svg>